<svg width="813" height="805" viewBox="0 0 813 805" fill="none" xmlns="http://www.w3.org/2000/svg">
<path d="M268.156 697.08L476.016 748.042L624.215 799.032C656.716 810.215 692.682 803.922 719.456 782.37L775.706 737.088C799.287 718.106 813 689.463 813 659.191V0H531.653H134.831C122.563 0 110.399 2.2575 98.9479 6.65972L50.8654 25.1442C-8.98218 48.1516 -17.4294 129.352 36.4011 164.185L39.0422 165.894C79.0761 191.799 85.548 247.788 52.4799 282.143C11.5775 324.638 32.7177 395.509 90.2163 408.652L147.195 421.676C208.498 435.689 239.125 504.683 208.396 559.549C177.968 613.876 207.679 682.252 268.156 697.08Z" fill="#73CDFF"/>
</svg>
