<svg width="732" height="717" viewBox="0 0 732 717" fill="none" xmlns="http://www.w3.org/2000/svg">
<path d="M280.5 549C310.122 550.358 346.69 545.389 378.355 539.399C421.844 531.172 467.328 548.085 491.138 585.395L544.426 668.896C576.471 719.11 645.035 730.349 691.434 692.993L694.712 690.354C718.289 671.372 732 642.731 732 612.462V0H469.285H99.4812C87.5374 0 75.6955 2.19808 64.5473 6.48442C-9.73335 35.0443 -20.2185 135.827 46.5924 179.065L67.853 192.825C76.8344 198.637 84.8249 205.853 91.5198 214.198L140.546 275.304C167.792 309.264 169.893 357.013 145.801 393.279C111.947 444.239 131.477 513.681 190.075 531.268C220.397 540.368 252.645 547.723 280.5 549Z" stroke="white" stroke-width="3"/>
</svg>
